# 3ds Max Wavefront OBJ Exporter v0.97b - (c)2007 guruware
# File Created: 15.01.2018 13:00:25

mtllib MOBILE.mtl

#
# object Box007
#

v  1804.8278 1012.7687 1862.5739
v  1804.8278 1012.7687 1816.1593
v  1804.8278 996.2536 1814.5577
v  1804.8278 996.2536 1862.5739
v  1816.6283 1012.7687 1816.1593
v  1816.6283 1012.7687 1862.5739
v  1816.6283 996.2536 1862.5739
v  1816.6283 996.2536 1814.5577
v  1804.8278 1012.7687 1798.1835
v  1807.2938 1012.7687 1798.1835
v  1807.2938 996.2536 1796.5819
v  1804.8278 996.2536 1796.5819
v  1807.2938 1012.7687 1862.5739
v  1807.2938 1012.7687 1816.1593
v  1804.8278 104.6047 1880.5497
v  1807.2938 104.6047 1880.5497
v  1807.2938 996.2536 1880.5497
v  1804.8278 996.2536 1880.5497
v  1807.2938 104.6047 1717.3313
v  1804.8278 104.6047 1717.3313
v  1807.2938 1012.7687 1880.5497
v  1804.8278 1012.7687 1880.5497
v  1816.6283 1012.7687 1880.5497
v  1816.6283 996.2536 1880.5497
v  1816.6283 996.2536 1796.5819
v  1816.6283 1012.7687 1798.1835
v  1804.8278 104.6047 1735.3070
v  1807.2938 104.6047 1735.3070
v  1807.2938 104.6047 1862.5739
v  1804.8278 104.6047 1862.5739
v  1816.6283 104.6047 1735.3070
v  1816.6283 104.6047 1717.3313
v  1816.6283 104.6047 1880.5497
v  1816.6283 104.6047 1862.5739
v  1807.2938 996.2536 1862.5739
v  1807.2938 996.2536 1814.5577
v  1606.9635 1012.7687 1862.5739
v  1606.9635 1012.7687 1816.1593
v  1606.9635 996.2536 1814.5577
v  1606.9635 996.2536 1862.5739
v  1618.7639 1012.7687 1816.1593
v  1618.7639 1012.7687 1862.5739
v  1618.7639 996.2536 1862.5739
v  1618.7639 996.2536 1814.5577
v  1606.9635 1012.7687 1798.1835
v  1609.4296 1012.7687 1798.1835
v  1609.4296 996.2536 1796.5819
v  1606.9635 996.2536 1796.5819
v  1609.4296 1012.7687 1862.5739
v  1609.4296 1012.7687 1816.1593
v  1606.9635 104.6047 1880.5497
v  1609.4296 104.6047 1880.5497
v  1609.4296 996.2536 1880.5497
v  1606.9635 996.2536 1880.5497
v  1609.4296 104.6047 1717.3313
v  1606.9635 104.6047 1717.3313
v  1609.4296 1012.7687 1880.5497
v  1606.9635 1012.7687 1880.5497
v  1618.7639 1012.7687 1880.5497
v  1618.7639 996.2536 1880.5497
v  1618.7639 996.2536 1796.5819
v  1618.7639 1012.7687 1798.1835
v  1606.9635 104.6047 1735.3070
v  1609.4296 104.6047 1735.3070
v  1609.4296 104.6047 1862.5739
v  1606.9635 104.6047 1862.5739
v  1618.7639 104.6047 1735.3070
v  1618.7639 104.6047 1717.3313
v  1618.7639 104.6047 1880.5497
v  1618.7639 104.6047 1862.5739
v  1609.4296 996.2536 1862.5739
v  1609.4296 996.2536 1814.5577
v  1618.7515 804.0074 1880.5748
v  1618.7515 819.9612 1880.5748
v  1618.7515 819.9612 1784.4554
v  1618.7515 804.0074 1784.4554
v  1804.8795 804.0074 1880.5747
v  1804.8795 804.0074 1784.4554
v  1804.8795 819.9612 1784.4554
v  1804.8795 819.9612 1880.5747
v  1629.3873 814.6433 1795.0913
v  1629.3873 814.6433 1869.9388
v  1794.2437 814.6433 1869.9388
v  1794.2437 814.6433 1795.0913
v  1618.7515 642.9684 1880.4939
v  1618.7515 658.9222 1880.4939
v  1618.7515 658.9222 1773.1199
v  1618.7515 642.9684 1773.1199
v  1804.8795 642.9684 1880.4939
v  1804.8795 642.9684 1773.1199
v  1804.8795 658.9222 1773.1199
v  1804.8795 658.9222 1880.4939
v  1629.3873 653.6043 1783.7557
v  1629.3873 653.6043 1869.8580
v  1794.2437 653.6043 1869.8580
v  1794.2437 653.6043 1783.7557
v  1618.7515 432.7411 1880.3215
v  1618.7515 448.6950 1880.3215
v  1618.7515 448.6950 1753.1819
v  1618.7515 432.7411 1753.1819
v  1804.8795 432.7411 1880.3215
v  1804.8795 432.7411 1753.1819
v  1804.8795 448.6950 1753.1819
v  1804.8795 448.6950 1880.3215
v  1629.3873 443.3770 1763.8177
v  1629.3873 443.3770 1869.6857
v  1794.2437 443.3770 1869.6857
v  1794.2437 443.3770 1763.8177
v  1618.7515 167.0087 1880.6111
v  1618.7515 182.9626 1880.6111
v  1618.7515 182.9626 1731.1095
v  1618.7515 167.0087 1731.1095
v  1804.8795 167.0087 1880.6111
v  1804.8795 167.0087 1731.1095
v  1804.8795 182.9626 1731.1095
v  1804.8795 182.9626 1880.6111
v  1629.3873 177.6446 1741.7454
v  1629.3873 177.6446 1869.9752
v  1794.2437 177.6446 1869.9752
v  1794.2437 177.6446 1741.7454
# 120 vertices

vn -0.7071 0.7071 0.0000
vn -0.8940 -0.3306 0.3025
vn -0.9045 -0.3015 -0.3015
vn 0.7071 0.7071 -0.0000
vn 0.9045 -0.3015 -0.3015
vn 0.8940 -0.3306 0.3025
vn -0.5826 0.6018 -0.5463
vn -0.0000 0.7404 -0.6721
vn -0.0000 0.0925 -0.9957
vn -0.7062 0.0655 -0.7050
vn 0.0000 1.0000 -0.0000
vn -0.5774 -0.5774 0.5774
vn 0.0000 -0.7071 0.7071
vn 0.0000 0.0000 1.0000
vn -0.7071 0.0000 0.7071
vn -0.0000 -0.6751 -0.7377
vn -0.5728 -0.5533 -0.6047
vn 0.0000 0.7071 0.7071
vn -0.5774 0.5774 0.5774
vn 0.5774 0.5774 0.5774
vn 0.7071 0.0000 0.7071
vn 0.7062 0.0655 -0.7050
vn 0.5826 0.6018 -0.5463
vn -0.5822 -0.5998 0.5489
vn -0.0000 -0.7377 0.6751
vn 0.0000 -0.7071 -0.7071
vn -0.5773 -0.5774 -0.5774
vn 0.5822 -0.5998 0.5489
vn 0.5728 -0.5533 -0.6047
vn 0.5774 -0.5774 0.5774
vn 0.5774 -0.5774 -0.5774
vn -0.5281 0.6650 0.5281
vn -0.5281 0.6650 -0.5281
vn -0.5774 -0.5774 -0.5774
vn 0.5281 0.6650 -0.5281
vn 0.5281 0.6650 0.5281
vn 0.1753 0.9688 0.1753
vn 0.1753 0.9688 -0.1753
vn -0.1753 0.9688 -0.1753
vn -0.1753 0.9688 0.1753
# 40 vertex normals

vt 0.8899 1.0000 0.0000
vt 0.1101 1.0000 0.0000
vt 0.1101 0.9800 0.0000
vt 0.8899 0.9800 0.0000
vt 1.0000 0.0000 0.0000
vt 1.0000 1.0000 0.0000
vt 0.9800 1.0000 0.0000
vt 0.9800 0.0000 0.0000
vt 0.1101 0.0000 0.0000
vt 0.8899 0.0000 0.0000
vt 0.0200 1.0000 0.0000
vt 0.0200 0.0000 0.0000
vt 0.0000 1.0000 0.0000
vt 0.0000 0.0000 0.0000
vt 0.0000 0.9800 0.0000
vt 1.0000 0.9800 0.0000
# 16 texture coords

o Box007
g Box007
usemtl wire_087225198
s 2
f 1/1/1 2/2/1 3/3/2 4/4/3 
s 4
f 5/1/4 6/2/4 7/3/5 8/4/6 
s 16
f 9/5/7 10/6/8 11/7/9 12/8/10 
s 32
f 2/9/1 1/10/1 13/1/11 14/2/11 
s 64
f 15/5/12 16/6/13 17/11/14 18/12/15 
s 16
f 11/7/9 19/13/16 20/14/17 12/8/10 
s 64
f 17/11/14 21/13/18 22/14/19 18/12/15 
s 2
f 2/2/1 9/13/7 12/15/10 3/3/2 
f 4/4/3 18/16/15 22/6/19 1/1/1 
s 4
f 6/2/4 23/13/20 24/15/21 7/3/5 
f 8/4/6 25/16/22 26/6/23 5/1/4 
s 8
f 27/10/24 20/5/17 19/6/16 28/1/25 
f 29/2/26 16/13/13 15/14/12 30/9/27 
s 32
f 1/10/1 22/5/19 21/6/18 13/1/11 
f 14/2/11 10/13/8 9/14/7 2/9/1 
s 2
f 30/10/27 15/5/12 18/16/15 4/4/3 
f 3/3/2 12/15/10 20/14/17 27/9/24 
s 4
f 31/10/28 32/5/29 25/16/22 8/4/6 
f 7/3/5 24/15/21 33/14/30 34/9/31 
s 16
f 30/10/27 4/4/3 35/3/26 29/9/26 
s 1
f 4/4/3 3/3/2 36/4/25 35/3/26 
s 16
f 3/3/2 27/9/24 28/10/25 36/4/25 
s off
f 16/14/13 29/9/26 34/9/31 33/14/30 
f 29/9/26 35/3/26 7/3/5 34/9/31 
f 35/3/26 36/4/25 8/4/6 7/3/5 
f 36/4/25 28/10/25 31/10/28 8/4/6 
f 28/10/25 19/5/16 32/5/29 31/10/28 
f 19/5/16 11/16/9 25/16/22 32/5/29 
f 11/16/9 10/6/8 26/6/23 25/16/22 
f 10/6/8 14/1/11 5/1/4 26/6/23 
f 14/1/11 13/2/11 6/2/4 5/1/4 
f 13/2/11 21/13/18 23/13/20 6/2/4 
f 21/13/18 17/15/14 24/15/21 23/13/20 
f 17/15/14 16/14/13 33/14/30 24/15/21 
s 2
f 37/1/1 38/2/1 39/3/2 40/4/3 
s 4
f 41/1/4 42/2/4 43/3/5 44/4/6 
s 16
f 45/5/7 46/6/8 47/7/9 48/8/10 
s 32
f 38/9/1 37/10/1 49/1/11 50/2/11 
s 64
f 51/5/12 52/6/13 53/11/14 54/12/15 
s 16
f 47/7/9 55/13/16 56/14/17 48/8/10 
s 64
f 53/11/14 57/13/18 58/14/19 54/12/15 
s 2
f 38/2/1 45/13/7 48/15/10 39/3/2 
f 40/4/3 54/16/15 58/6/19 37/1/1 
s 4
f 42/2/4 59/13/20 60/15/21 43/3/5 
f 44/4/6 61/16/22 62/6/23 41/1/4 
s 8
f 63/10/24 56/5/17 55/6/16 64/1/25 
f 65/2/26 52/13/13 51/14/12 66/9/27 
s 32
f 37/10/1 58/5/19 57/6/18 49/1/11 
f 50/2/11 46/13/8 45/14/7 38/9/1 
s 2
f 66/10/27 51/5/12 54/16/15 40/4/3 
f 39/3/2 48/15/10 56/14/17 63/9/24 
s 4
f 67/10/28 68/5/29 61/16/22 44/4/6 
f 43/3/5 60/15/21 69/14/30 70/9/31 
s 16
f 66/10/27 40/4/3 71/3/26 65/9/26 
s 1
f 40/4/3 39/3/2 72/4/25 71/3/26 
s 16
f 39/3/2 63/9/24 64/10/25 72/4/25 
s off
f 52/14/13 65/9/26 70/9/31 69/14/30 
f 65/9/26 71/3/26 43/3/5 70/9/31 
f 71/3/26 72/4/25 44/4/6 43/3/5 
f 72/4/25 64/10/25 67/10/28 44/4/6 
f 64/10/25 55/5/16 68/5/29 67/10/28 
f 55/5/16 47/16/9 61/16/22 68/5/29 
f 47/16/9 46/6/8 62/6/23 61/16/22 
f 46/6/8 50/1/11 41/1/4 62/6/23 
f 50/1/11 49/2/11 42/2/4 41/1/4 
f 49/2/11 57/13/18 59/13/20 42/2/4 
f 57/13/18 53/15/14 60/15/21 59/13/20 
f 53/15/14 52/14/13 69/14/30 60/15/21 
s 2
f 73/5/12 74/6/32 75/13/33 76/14/34 
s 4
f 77/14/30 78/5/31 79/6/35 80/13/36 
s 8
f 73/14/12 76/5/34 78/6/31 77/13/30 
s 16
f 76/14/34 75/5/33 79/6/35 78/13/31 
s 32
f 81/14/37 82/5/38 83/6/39 84/13/40 
s 64
f 74/14/32 73/5/12 77/6/30 80/13/36 
s off
f 75/14/33 74/5/32 82/5/38 81/14/37 
f 74/5/32 80/6/36 83/6/39 82/5/38 
f 80/6/36 79/13/35 84/13/40 83/6/39 
f 79/13/35 75/14/33 81/14/37 84/13/40 
s 2
f 85/5/12 86/6/32 87/13/33 88/14/34 
s 4
f 89/14/30 90/5/31 91/6/35 92/13/36 
s 8
f 85/14/12 88/5/34 90/6/31 89/13/30 
s 16
f 88/14/34 87/5/33 91/6/35 90/13/31 
s 32
f 93/14/37 94/5/38 95/6/39 96/13/40 
s 64
f 86/14/32 85/5/12 89/6/30 92/13/36 
s off
f 87/14/33 86/5/32 94/5/38 93/14/37 
f 86/5/32 92/6/36 95/6/39 94/5/38 
f 92/6/36 91/13/35 96/13/40 95/6/39 
f 91/13/35 87/14/33 93/14/37 96/13/40 
s 2
f 97/5/12 98/6/32 99/13/33 100/14/34 
s 4
f 101/14/30 102/5/31 103/6/35 104/13/36 
s 8
f 97/14/12 100/5/34 102/6/31 101/13/30 
s 16
f 100/14/34 99/5/33 103/6/35 102/13/31 
s 32
f 105/14/37 106/5/38 107/6/39 108/13/40 
s 64
f 98/14/32 97/5/12 101/6/30 104/13/36 
s off
f 99/14/33 98/5/32 106/5/38 105/14/37 
f 98/5/32 104/6/36 107/6/39 106/5/38 
f 104/6/36 103/13/35 108/13/40 107/6/39 
f 103/13/35 99/14/33 105/14/37 108/13/40 
s 2
f 109/5/12 110/6/32 111/13/33 112/14/34 
s 4
f 113/14/30 114/5/31 115/6/35 116/13/36 
s 8
f 109/14/12 112/5/34 114/6/31 113/13/30 
s 16
f 112/14/34 111/5/33 115/6/35 114/13/31 
s 32
f 117/14/37 118/5/38 119/6/39 120/13/40 
s 64
f 110/14/32 109/5/12 113/6/30 116/13/36 
s off
f 111/14/33 110/5/32 118/5/38 117/14/37 
f 110/5/32 116/6/36 119/6/39 118/5/38 
f 116/6/36 115/13/35 120/13/40 119/6/39 
f 115/13/35 111/14/33 117/14/37 120/13/40 
# 108 polygons

